/* XPM */
static char *ee4779b147c148218c639989ae36a329ao4VoSrEPzlFeeNp[] = {
/* columns rows colors chars-per-pixel */
"32 32 6 1 ",
"  c #E91E63",
". c #AEEA00",
"X c #FFEB3B",
"o c #FFB74D",
"O c #00BCD4",
"+ c white",
/* pixels */
"O+OOOOOOOOOO+OOOOOOOOOOOOOOOOOOO",
"OOOOOOOOOOOOOOOOOOOOOOOOOOOOO+OO",
"OOOO  OO+OOO   OOOOOOO  OOOOOOOO",
"  O oo OOOO  o  OO+O  o  OOOO   ",
"o   ooo OOO ooo  OOO ooo  OO  oo",
"oooooooo   ooooo    ooooo    ooo",
"oooooooooooooooooooooooooooooooo",
"ooooooooooooooooooooooo+oooooooo",
"ooo+oooooooo+oooooooooooooooooo+",
"oooooooooooooooo+ooooooooooooooo",
"oooooooooooooooooooooooooo+ooooo",
"oooooooooo+ooooooooooooooooooooo",
"ooo     oooooooo   ooooo+ooooooo",
"o   ...  oooooo  .  oooooooooooo",
"  ...... ooooo ....  ooooooo    ",
".....+..  oooo ...... oooooo ...",
".........  o  ...+...  oooo  ...",
"..........   .........  oo  ....",
"....+..................    ...+.",
"...............+................",
"..+.............................",
"......+............+........+...",
"...........+............+.......",
"................................",
"   ............       .....+... ",
"XX  ....+.....  XXXXX  ....... X",
"XXX  ........  XXXXXXX  ..... XX",
"X+XX ........ XXXXXXXXX  .... XX",
"XXXX   ....  XXXXX+XXXXX ...  XX",
"XXXXXX      XXXXXXXXX+XX     XXX",
"XX+XXXXXXXXXXX+XXXXXXXXXXXXXXXXX",
"XXXXXXXXXXXXXXXXXXXXXXXXXXXXXXXX"
};
