/* XPM */
static char *_baec002c1cb4574a059b25c1597cdb8eIgNcjDCxnJqmSnk[] = {
/* columns rows colors chars-per-pixel */
"100 100 22 1 ",
"  c black",
". c gray11",
"X c #2C2C2C",
"o c gray22",
"O c #483818",
"+ c #543C1C",
"@ c #5C4020",
"# c #744C28",
"$ c gray25",
"% c #484848",
"& c #4C4C4C",
"* c gray33",
"= c gray36",
"- c gray44",
"; c #7C7C7C",
": c gray55",
"> c #989898",
", c gray66",
"< c #B4B4B4",
"1 c #C0C0C0",
"2 c #D0D0D0",
"3 c gainsboro",
/* pixels */
"....................................................................................................",
"....................................................................................................",
"oo---;;;;:::>>>>>,,<<<<11111111111<<<<<<,,,>>>:::;;;;;;;;;--------======******%%%*****======------..",
"%%----;;;;;:>>>>>,,,,,,<<111111111<<<<<<,,,>>>::::::;;;;;;--------======******%%%*******======----..",
"%%----;;;;;:>>>>>,,,,,,<<111111111<<<<<<,,,>>>::::::;;;;;;--------======******%%%*******======----..",
"%%-%%;---;;::::::%%;,,,<<1111111%%;;111<,,,,,,>>&;;;::;;;;------%%;;======******o;;%%%**======%;;-..",
"%%-XX%---;;::::::XX%,,,<<<<<1111XX%%111<<<<,,,>>X&&&:::;;;;;----XX%%---===******Xoo%%%**======X%%-..",
"%%-XX%---;;::::::XX%,,,<<<<<1111XX%%111<<<<,,,>>X&&&:::;;;;;----XX%%---===******Xoo%%%**======X%%-..",
"**=------;;;:::::>>,,,,,,<<<11111111111<<<<,,,>>>::::::;;;;;-----------====*****%%%%%%******=====-..",
"**=--------;;;;;;::>>>>,,<<<<<<111111111<<<,,,,,,>>>:::;;;;;------------======*****%%%%%******====..",
"**=--------;;;;;;::>>>>,,<<<<<<111111111<<<,,,,,,>>>:::;;;;;------------======*****%%%%%******====..",
"**=--------;;;;;;::>>>>,,<<<<<<111111111111<<<,,,>>>>>>:::;;;;;;--------======*****%%%%%******====..",
"**===------;;;;;;::>>>>>>,,,<<<111111111111<<<,,,>>>>>>:::;;;;;;--------======*****%%%%%%%%%**====..",
"**===------;;;;;;::>>>>>>,,,<<<111111111111<<<,,,>>>>>>:::;;;;;;--------======*****%%%%%%%%%**====..",
"***==-------;;;;;;;::::>>,,,ooooooooooooooooooXXXXXXXXXXXXXXXXXXXXXXXXXXXX======******%%%%%%*****=..",
"***======---;;;;;;;::::::>,,2XXXXXXXXXXXXXXXXX..........................11-======*****%%%%%%*****=..",
"***======---;;;;;;;::::::>,,2XXXXXXXXXXXXXXXXX..........................11-======*****%%%%%%*****=..",
"***======---;;;;;;;;:::::>>><22,,,,,,>>>:::;;;;;;;;;-----===========***1,,----=====******%%%%%***=..",
"***======---;;;;;;;;:::::>>><22,,,,,,>>>:::;;;;;;;;;-----===========***1,,----=====******%%%%%***=..",
"***%%;=====------%%-;;;::>>>,<<2<<<<,>>>>>>:::;;;;;;---------========11,------==%;;******%%%%%o;;*..",
"**%XX%=====------XX%;;;:::::>>><22<<<,,,>>>:::;;;;;;;;;--------=====1,,-------==X%%===*****%%%Xoo*XX",
"**%XX%=====------XX%;;;:::::>>><22<<<,,,>>>:::;;;;;;;;;--------=====1,,-------==X%%===*****%%%Xoo*XX",
"**%**======------;;;;;;:::::>>>,1122<,,,>>>:::;;;;;;;;;--------===11,;;;--------======*****%%%%%%*XX",
"**%******===-------;;;;;;:::>>>>,,112,,,,,,>>>::;;;;;;;--------=11,,;;;;--------======*****%%%%%%*XX",
"**%******===-------;;;;;;:::>>>>,,112,,,,,,>>>::;;;;;;;--------=11,,;;;;--------======*****%%%%%%*XX",
"**%%%****===-----------;;;;;:::>,,,,122<,,,>>>::::::;;;;;------1,,;;;;;;;;;-----=========******%%%XX",
"**%%%****===---oooo----;;;;;:::>,,,,<112,,,>>>::::::;;;;;----11,:::::::;;;;--------======******%%%XX",
"**%%%****===---oooo----;;;;;:::>,,,,<112,,,>>>::::::;;;;;----11,:::::::;;;;--------======******%%%XX",
"**%%%******====ooXXo---;;;;;::::>>>>,,,122,,,,>>::::;;;;;---1<<>:::::::;;;;--------======******%%%XX",
"**%%%%%%%***===oo...oo---;;;;;;:>>>>,,,,112,,,>>>>>>:::;;;332,,,>>:::::;;;;;;;---oo..======******%XX",
"**%%%%%%%***===oo...oo---;;;;;;:>>>>,,,,112,,,>>>>>>:::;;;332,,,>>:::::;;;;;;;---oo..======******%XX",
"**%%%%%%%***===oo..>..o--;;;;;;:>>>>,,,,,,122,>>>>>>:::;;322,,,,>>>>>>>:;;;;;;--o..::-=========**%XX",
"***oo;%%%%%*===oo..:>>.oo---;;;;::::>>>,,,<112,,>>>>:::332<<,,,,>>>>>>>:;;;;;;oo.--::-========%;;%XX",
"***oo;%%%%%*===oo..:>>.oo---;;;;::::>>>,,,<112,,>>>>:::332<<,,,,>>>>>>>:;;;;;;oo.--::-========%;;%XX",
"***XXo%%%%%****oo..:::>..o--;;;;::::>>>,,,,<<122>>>>>>3221<<<<<<,,>>>>>:;;;;;o..*--::----=====X%%*XX",
"***XXo%%%%%****oo..:::>..o--;;;;::::>>>,,,,<<122>>>>>>3221<<<<<<,,>>>>>:;;;;;o..*--::----=====X%%*XX",
"******%%%%%%***oo..:::>>>.oo---;;;;;:::>>>,<<<113,,,33211111<<<<,,,,,,,>:::oo.==*--::----========*XX",
"******%%%%%%***oo..;;;;;;;..o--;;;;;:::>>>,<<<<<233322111111<<<<<<,,,,,>::o..===*--::------======*XX",
"******%%%%%%***oo..;;;;;;;..o--;;;;;:::>>>,<<<<<233322111111<<<<<<,,,,,>::o..===*--::------======*XX",
"**=*****%%%%%%%oo::>>>>>>>>>o--;;;;;:::>%%;,,,,,<222111111%%;<<<<<,,,,,>oo.======--::------======*XX",
"**=*****%%%%%%%*****=====-------;;;;;;;:XX%,,,,,<<<<<<<111XX%111<<<<<<<o..---====-->>;-----=======XX",
"**=*****%%%%%%%*****=====-------;;;;;;;:XX%,,,,,<<<<<<<111XX%111<<<<<<<o..---====-->>;-----=======XX",
"%%=*****....XX%*******===-------;;;;;;;:::>,,,,,<<<<<<<11111111111<<<oo.-----====-->>;---------===XX",
"%%====** ...XX%%%******=====----;;;;;;;::::>>>>>,<<<<<<<<111111111<<o..;-----====-->>;---------===XX",
"%%====** ...XX%%%******=====----;;;;;;;::::>>>>>,<<<<<<<<111111111<<o..;-----====-->>;---------===XX",
"%%====** ...XX%%%**###@========-----;;;;;;:>>>>>,,,,,,,<<111111111oo.;;;--------=-->>;;;;--------=XX",
"%%====** ...oo%%%%%#  O========-----;;;;;;:>>>>>,,,,,,,<<1111111oo..;;;;--------=-->>;;;;--------=XX",
"%%====** ...oo%%%%%#  O========-----;;;;;;:>>>>>,,,,,,,<<1111111oo..;;;;--------=-->>;;;;--------=XX",
"%%-%%;== ...oo%%%%%#  O**======-----;;;;;;;:::::>,,,,,,<<<11111o..::;;;;;;;-----=-->>;;;;-----%;;=XX",
"%%-XX%== ...oo*%%%%#  +*****====-------;;;;:::::>,,,,,,,,<111113>>>>:;;;;;;------;;>>:;;;;;---X%%-XX",
"%%-XX%== ...oo*%%%%#  +*****====-------;;;;:::::>,,,,,,,,<111113>>>>:;;;;;;------;;>>:;;;;;---X%%-XX",
"%%-XX%== ...oo*%%%%#  +*****====-------;;;;:::::>,,,,,,,,<111113>>>>:;;;;;;------;;>>:;;;;;---X%%-XX",
"%%----== ...oo*%%%%#  O*****====-------;;;;:::::>,,,,,,,,<11111233>>:;;;;;;------;;>>:;;;;;-------XX",
"%%----== ...oo*%%%%#  O*****====-------;;;;:::::>,,,,,,,,<11111233>>:;;;;;;------;;>>:;;;;;-------XX",
"%%----== ...$$***%%@OOO*****====-------;;;;;;;;;:>>>>>>,,<<<<<<12233:;;;;;;;;----;;>>:;;;;;-------XX",
"%%----== ...$$***%%%%%%%%******=====------;;;;;;:>>>>>>>>,<<<<<111223:::;;;;;;;;-;;>>::::;;;;;;---XX",
"%%----== ...$$***%%%%%%%%******=====------;;;;;;:>>>>>>>>,<<<<<111223:::;;;;;;;;-;;>>::::;;;;;;---XX",
"%%------   .$$***%%%%%%%%%%%***=====----%%:;;;;;;::::::>>,&&;,,<1111233::::;;;;;-;;,,>:::;;;;;;---XX",
"%%------=$$$$$=*******%%%%%%***=====----XX%;;;;;;::::::>>,XX%,,<11111223:::;;;;;-;;,,>>>>::;;;;;;-XX",
"%%------=$$$$$=*******%%%%%%***=====----XX%;;;;;;::::::>>,XX%,,<11111223:::;;;;;-;;,,>>>>::;;;;;;-XX",
"%%;------======ooooooooooooo;***=======----;;;;;;::::::::>,,,,,<<<<<111233:;;;;;;::,,>>>>::;;;;;;-XX",
"%%;--------====oo.........**;%%*****===---------;ooooo;::>,,,,,,<<<<1111223::;;;;::,,,>>>::;;;;;;;XX",
"%%;--------====oo.........**;%%*****===---------;ooooo;::>,,,,,,<<<<1111223::;;;;::,,,>>>::;;;;;;;XX",
"%%;--------====oo..*=====:;;%%%*****===---------o.....o::>,,,,,,<<<<111111233;;;;::,,,,,,>>::::;;;XX",
"%%;%%;-----====oo..***=::;%%%%%%****======----oo.,,,<<.oo:>>>>>,<<<<<<<1111223;;;::,,,,,,>>:::%--;XX",
"%%;%%;-----====oo..***=::;%%%%%%****======----oo.,,,<<.oo:>>>>>,<<<<<<<1111223;;;::,,,,,,>>:::%--;XX",
"%%;XX%--------=oo..***:;;%%%%%%%*******===---o..,,,,<<1..o>>>>>,,,,,<<<111111233;::,,<,,,>>:::X%%;XX",
"%%;XX%--------=oo..***:;;%%%%%%%*******===---o..,,,,<<1..o>>>>>,,,,,<<<111111233;::,,<,,,>>:::X%%;XX",
"oo;;;;--------=oo..%::;**%%%%%%%*******===-oo.,,,,,,<<<11.oo>>>,,,,,<<<1111111223::,,<,,,,,>>>>::;XX",
"oo;;;;;;-------oo..:;;=******%%%%%%%******o..>,,,,,,,,<111..o::>,,,,<<<<<<111111233,,<,,,,,>>>>::;XX",
"oo;;;;;;-------oo..:;;=******%%%%%%%******o..>,,,,,,,,<111..o::>,,,,<<<<<<111111233,,<,,,,,>>>>::;XX",
"oo:;;;;;;;;----oo**;=====******%%%%%****oo.::>,,,,,,,,<11111.oo>>>>>,,,<<<11111112233<<<<,,>>>>:::XX",
"oo::::;;;;;----oo;;======******%%%%%***o..;;;:>>>>>>,,<<<<<<1..o>>>>,,,<<<111111111111<<<<<,,,,>>:XX",
"oo::::;;;;;----oo;;======******%%%%%***o..;;;:>>>>>>,,<<<<<<1..o>>>>,,,<<<111111111111<<<<<,,,,>>:XX",
"oo::::;;;;;--------======******%%%%%%oo.;;;;;:>>>>>>>>,<<<<<111.oo>>,,,,,,<11111111111<<<<<,,,,>>:XX",
"oo>:::;;;;;;;;-----==========***%%%%o..-;;;;;;::::::>>,,,,,,<111..oo>>>,,,<<<<<<111111111<<,,,,>>>XX",
"oo>:::;;;;;;;;-----==========***%%%%o..-;;;;;;::::::>>,,,,,,<111..oo>>>,,,<<<<<<111111111<<,,,,>>>XX",
"oo>>>>::;;;;;;---------========*%%oo.---;;;;;;::::::>>,,,,,,<11111..o>>,,,,<<<<<111111111<<<<<<,,>XX",
"oo>%%;::;;;;;;---%%;---========*oo..----;;;;;;::::::::>,,,,,<<<<1111.oo,,,,<<<<<%;;11111111<<<%;;,XX",
"oo>%%;::;;;;;;---%%;---========*oo..----;;;;;;::::::::>,,,,,<<<<1111.oo,,,,<<<<<%;;11111111<<<%;;,XX",
"oo,XX%::;;;;;;;;;XX%-----======o..==---------;;;;;;;::>,,,,,,<<<11111..o>>,<<<<<X%%11111111<<<X%%,XX",
"oo,>>>>>:::;;;;;;--------====oo.====---------;;;;;;;::>,,,,,,<<<1111111.oo>,,,,,<11111111111111<<,XX",
"oo,>>>>>:::;;;;;;--------====oo.====---------;;;;;;;::>,,,,,,<<<1111111.oo>,,,,,<11111111111111<<,XX",
"oo,>>>>>:::;;;;;;--------====..;;;;;;;;;;;;;;;;;------------------------..>,,,,,<11111111111111<<,XX",
"oo,>>>>>:::;;;;;;--------====..;;;;;;;;;;;;;;;;;------------------------..>,,,,,<11111111111111<<,XX",
"oo<,,,>>::::::;;;;;---------->>>>>>>>>>>>>>>>>::::::::::::::::::::::::::::>,,,,,<<<111111111111<<,XX",
"oo<,,,,,>>>:::;;;;;------------======*****%%%%%%*******===------;;;;;;;::::>>>>>,<<11111111111111<XX",
"oo<,,,,,>>>:::;;;;;------------======*****%%%%%%*******===------;;;;;;;::::>>>>>,<<11111111111111<XX",
"oo<,,,,,>>>:::;;;;;------------======*****%%%%%%*******===------;;;;;;;::::>>>>>,<<11111111111111<XX",
"oo<<<<,,>>>::::::;;;;;;--------======*****%%%%%%%********=----------;;;;;;:>>>>>,,,<<<<<111111111<XX",
"oo<<<<,,>>>::::::;;;;;;--------======*****%%%%%%%********=----------;;;;;;:>>>>>,,,<<<<<111111111<XX",
"oo1<<<<<,,,>>>:::;;;;;;---------=======******%%%%********======-----;;;;;;::::::>,,<<<<<<111111111XX",
"oo1%%;<<,,,>>>>>>%%-;;;;;-------%%;;===******%%%o;;;&&&***======%%;;---;;;;:::::%;;,,,,,<11111%;;1XX",
"oo1%%;<<,,,>>>>>>%%-;;;;;-------%%;;===******%%%o;;;&&&***======%%;;---;;;;:::::%;;,,,,,<11111%;;1XX",
"oo1XX%<<,,,>>>>>>XX%;;;;;;;;----XX%%===******%%%Xooo%%%***======XX%%---;;;;;;:::X%%,,,,,<11111X%%1XX",
"oo1111<<<<<,,,>>>::;;;;;;;;;;--------=====******%%%%%%%%%*======-------;;;;;;;;;:>>,,,,,<<<<<<1111XX",
"oo1111<<<<<,,,>>>::;;;;;;;;;;--------=====******%%%%%%%%%*======-------;;;;;;;;;:>>,,,,,<<<<<<1111XX",
"oo111111<<<,,,,,,>>::::;;;;;;--------========****%%%%%%%%******=====------;;;;;;:>>>>>>>,<<<111111XX",
"....................................................................................................",
"...................................................................................................."
};
