/* XPM */
static char *_ccedeeaeafd4f64981878974c3cab8dtyYwfMb7l5CoVX4s[] = {
/* columns rows colors chars-per-pixel */
"32 32 63 1 ",
"  c black",
". c #5D4113",
"X c #67491E",
"o c #71501C",
"O c #7F5A1E",
"+ c #4A413C",
"@ c #6E5328",
"# c #6F5328",
"$ c #7C5B22",
"% c #725629",
"& c #77592B",
"* c #795A2B",
"= c #7B5C2C",
"- c #7D5D2D",
"; c #7E5F2D",
": c #624734",
"> c #664836",
", c #69493E",
"< c #7C5C3F",
"1 c #5B5453",
"2 c #835E1F",
"3 c #8B6321",
"4 c #80602E",
"5 c #84632F",
"6 c #866430",
"7 c #866530",
"8 c #866433",
"9 c #886631",
"0 c #896731",
"q c #896832",
"w c #8A6833",
"e c #8A6933",
"r c #8F7040",
"t c #8E7942",
"y c #907141",
"u c #947441",
"i c #957541",
"p c #957646",
"a c #937A45",
"s c #947E44",
"d c #957E45",
"f c #997D4B",
"g c #857663",
"h c #837665",
"j c #988045",
"k c #998348",
"l c #9B8448",
"z c #9B854B",
"x c #9F874A",
"c c #9C874D",
"v c #9C894E",
"b c #9D8855",
"n c #A38B4C",
"m c #A0894F",
"M c #A88848",
"N c #A48B51",
"B c #A18D50",
"V c #A78F53",
"C c #A69353",
"Z c #AA9554",
"A c #A99655",
"S c #AD9856",
"D c #97896C",
/* pixels */
"$AvvvvSSSSnSSSvvvvASSMSSSScvvvA$",
"$n9999q996999896w9998889999999n$",
"$l;;;;;;8-=444--;;4---=644=;=;n$",
"Xt@;MMMM54MMMM5-=5MMMM46MMMM=@tX",
"$>&4MMMM6=MMMM6;=5MMMM45MMMM=*>$",
"Xh==MMMM5=MMMM6=45MMMM=6MMMM==hX",
"$m=666568;iyry6==5uuuu=666565=n$",
"Xa===;==8=;;;;;=-==4==46;=;;;*pX",
"$j%=MMMM6;MMMMp=-pMMMM55MMMM=%l$",
"$n=4MMMM6;MMMMp=*pMMMM-5MMMM==m$",
"$n*4MMMM6=MMMMp=-pMMMM;5MMMM--m$",
"Xd==66666;ppppp=*ppppp-56666--aX",
"$d%;99999w9w9w9@%9q9qqqqq9q94#j$",
"$n9*=4==6===*;;85==--*=5--;*-6n$",
"$p9;MMMM6=MM1+ ,, +1MM-5MMMM46a$",
"X>9;MMMM6=MM:<9>>6<:MM-5MMMM-q>X",
"$hw-MMMM5=MMMMw9q9MMMM=8MMMM=9h$",
"$b8=uuyu54uuuuw99qiiuu=8iyuu=9b$",
"$n99weww899www9996qqww99w9w9w9n$",
"Xd9;=4--e4==44==;;=5--=r4;4;59dX",
"$nw4MMMMu-MMMM5=;6MMMM=rMMMM=9n$",
"Xn84MMMMy4MMMM5=*6MMMM;rMMMM;9nX",
"$n64MMMMy-MMMM6;;6MMMM*rMMMM=9n$",
"Xf--MMMMr-MMMM6;;6MMMM=rMMMM=4fX",
"$nuuuwppuuuruu9968uyuyuuwpuuuuN$",
"$Vr=4=44r=;=;=9w9w---==r44=;=uV$",
"$>e4MMMMr=MMMMr99iMMMM=rMMMM=u>$",
"XDp5MMMMr=MMMMuw9iMMMM=rMMMM=uDX",
"$Vr*MMMMr*MMMMu99pMMMM=rMMMM=uV$",
"$Npuuuuuuuuuuuu99eipuuuuuuuyupm$",
"$CzzzzccccczccckkknvzczzcczzczC$",
".oOOOO22OOOOO2233222OOO2$2OO22o."
};
